<?xml version="1.0" encoding="UTF-8"?>
<svg id="Pictos" xmlns="http://www.w3.org/2000/svg" version="1.1" viewBox="0 0 300 180">
  <!-- Generator: Adobe Illustrator 29.8.1, SVG Export Plug-In . SVG Version: 2.1.1 Build 2)  -->
  
  <!-- PARTIE AIR -->
  <g id="Air">
    <!-- Bordeaux -->
      <path id="33063_Air_Fond" fill="#61bda3" stroke="black" stroke-width=".25" d="M70.14,97.28c-4.66,0-8.46-3.79-8.46-8.46s3.79-8.46,8.46-8.46,8.46,3.79,8.46,8.46-3.79,8.46-8.46,8.46Z"/>
     <path id="33063_Air_Picto" fill="#fff" d="M69.75,83.78c-.95.03-1.71.84-1.71,1.82,0,.22.18.4.4.4,0,0,0,0,0,0,.22,0,.4-.18.4-.4,0,0,0,0,0,0,0-.58.43-1.02.95-1.02s.95.44.95,1.02-.43,1.02-.95,1.02h-4.85c-.22,0-.4.18-.4.4,0,.22.18.4.4.4h4.85c.97,0,1.75-.83,1.75-1.82s-.78-1.82-1.75-1.82c-.02,0-.03,0-.05,0Z73.98,85.59c-.97,0-1.75.83-1.75,1.82,0,.22.18.4.4.4h0c.22,0,.4-.18.4-.4,0,0,0,0,0,0,0-.58.43-1.02.95-1.02s.95.44.95,1.02-.43,1.02-.95,1.02h-9.04c-.22,0-.4.18-.4.4,0,.22.18.4.4.4h9.04c.97,0,1.75-.83,1.75-1.82s-.78-1.82-1.75-1.82Z64.94,90.24c-.22,0-.4.18-.4.4h0c0,.22.18.4.4.4h5.65c.52,0,.95.44.95,1.02s-.43,1.02-.95,1.02-.95-.44-.95-1.02c0-.22-.18-.4-.4-.4,0,0,0,0,0,0-.22,0-.4.18-.4.4h0c0,.99.78,1.82,1.75,1.82s1.75-.83,1.75-1.82-.77-1.81-1.73-1.82c0,0-.02,0-.02,0h-5.65Z"/>
     
      <!-- Libourne -->
      <path id="33243_Air_Fond" fill="#61bda3" stroke="black" stroke-width=".25" d="M78.79,96.42c-4.66,0-8.46-3.79-8.46-8.46s3.79-8.46,8.46-8.46,8.46,3.79,8.46,8.46-3.79,8.46-8.46,8.46Z"/>
      <path id="33243_Air_Picto" fill="#fff" d="M78.4,82.91c-.95.03-1.71.84-1.71,1.82,0,.22.18.4.4.4,0,0,0,0,0,0,.22,0,.4-.18.4-.4,0,0,0,0,0,0,0-.58.43-1.02.95-1.02s.95.44.95,1.02-.43,1.02-.95,1.02h-4.85c-.22,0-.4.18-.4.4,0,.22.18.4.4.4h4.85c.97,0,1.75-.83,1.75-1.82s-.78-1.82-1.75-1.82c-.02,0-.03,0-.05,0Z82.64,84.72c-.97,0-1.75.83-1.75,1.82,0,.22.18.4.4.4h0c.22,0,.4-.18.4-.4,0,0,0,0,0,0,0-.58.43-1.02.95-1.02s.95.44.95,1.02-.43,1.02-.95,1.02h-9.04c-.22,0-.4.18-.4.4,0,.22.18.4.4.4h9.04c.97,0,1.75-.83,1.75-1.82s-.78-1.82-1.75-1.82Z73.6,89.37c-.22,0-.4.18-.4.4h0c0,.22.18.4.4.4h5.65c.52,0,.95.44.95,1.02s-.43,1.02-.95,1.02-.95-.44-.95-1.02c0-.22-.18-.4-.4-.4,0,0,0,0,0,0-.22,0-.4.18-.4.4h0c0,.99.78,1.82,1.75,1.82s1.75-.83,1.75-1.82-.77-1.81-1.73-1.82c0,0-.02,0-.02,0h-5.65Z"/>

      <!-- Arcachon -->
      <path id="33009_Air_Fond" fill="orange" stroke="black" stroke-width=".25" d="M49.38,107.55c-4.66,0-8.46-3.79-8.46-8.46s3.79-8.46,8.46-8.46,8.46,3.79,8.46,8.46-3.79,8.46-8.46,8.46Z"/>
      <path id="33009_Air_Picto" fill="#fff" d="M48.98,94.04c-.95.03-1.71.84-1.71,1.82,0,.22.18.4.4.4,0,0,0,0,0,0,.22,0,.4-.18.4-.4,0,0,0,0,0,0,0-.58.43-1.02.95-1.02s.95.44.95,1.02-.43,1.02-.95,1.02h-4.85c-.22,0-.4.18-.4.4,0,.22.18.4.4.4h4.85c.97,0,1.75-.83,1.75-1.82s-.78-1.82-1.75-1.82c-.02,0-.03,0-.05,0Z53.22,95.85c-.97,0-1.75.83-1.75,1.82,0,.22.18.4.4.4h0c.22,0,.4-.18.4-.4,0,0,0,0,0,0,0-.58.43-1.02.95-1.02s.95.44.95,1.02-.43,1.02-.95,1.02h-9.04c-.22,0-.4.18-.4.4,0,.22.18.4.4.4h9.04c.97,0,1.75-.83,1.75-1.82s-.78-1.82-1.75-1.82Z44.18,100.5c-.22,0-.4.18-.4.4h0c0,.22.18.4.4.4h5.65c.52,0,.95.44.95,1.02s-.43,1.02-.95,1.02-.95-.44-.95-1.02c0-.22-.18-.4-.4-.4,0,0,0,0,0,0-.22,0-.4.18-.4.4h0c0,.99.78,1.82,1.75,1.82s1.75-.83,1.75-1.82-.77-1.81-1.73-1.82c0,0-.02,0-.02,0h-5.65Z"/>

      <!-- Agen -->
      <path id="47001_Air_Fond" fill="#61bda3" stroke="black" stroke-width=".25" d="M108.65,127.36c-4.66,0-8.46-3.79-8.46-8.46s3.79-8.46,8.46-8.46,8.46,3.79,8.46,8.46-3.79,8.46-8.46,8.46Z"/>
      <path id="47001_Air_Picto" fill="#fff" d="M108.26,113.85c-.95.03-1.71.84-1.71,1.82,0,.22.18.4.4.4,0,0,0,0,0,0,.22,0,.4-.18.4-.4,0,0,0,0,0,0,0-.58.43-1.02.95-1.02s.95.44.95,1.02-.43,1.02-.95,1.02h-4.85c-.22,0-.4.18-.4.4,0,.22.18.4.4.4h4.85c.97,0,1.75-.83,1.75-1.82s-.78-1.82-1.75-1.82c-.02,0-.03,0-.05,0Z112.49,115.66c-.97,0-1.75.83-1.75,1.82,0,.22.18.4.4.4h0c.22,0,.4-.18.4-.4,0,0,0,0,0,0,0-.58.43-1.02.95-1.02s.95.44.95,1.02-.43,1.02-.95,1.02h-9.04c-.22,0-.4.18-.4.4,0,.22.18.4.4.4h9.04c.97,0,1.75-.83,1.75-1.82s-.78-1.82-1.75-1.82Z103.45,120.31c-.22,0-.4.18-.4.4h0c0,.22.18.4.4.4h5.65c.52,0,.95.44.95,1.02s-.43,1.02-.95,1.02-.95-.44-.95-1.02c0-.22-.18-.4-.4-.4,0,0,0,0,0,0-.22,0-.4.18-.4.4h0c0,.99.78,1.82,1.75,1.82s1.75-.83,1.75-1.82-.77-1.81-1.73-1.82c0,0-.02,0-.02,0h-5.65Z"/>
      
      <!-- Dax -->
      <path id="40192_Air_Fond" fill="#61bda3" stroke="black" stroke-width=".25" d="M71.41,141.39c-4.66,0-8.46-3.79-8.46-8.46s3.79-8.46,8.46-8.46,8.46,3.79,8.46,8.46-3.79,8.46-8.46,8.46Z"/>
      <path id="40192_Air_Picto" fill="#fff" d="M71.02,127.89c-.95.03-1.71.84-1.71,1.82,0,.22.18.4.4.4,0,0,0,0,0,0,.22,0,.4-.18.4-.4,0,0,0,0,0,0,0-.58.43-1.02.95-1.02s.95.44.95,1.02-.43,1.02-.95,1.02h-4.85c-.22,0-.4.18-.4.4,0,.22.18.4.4.4h4.85c.97,0,1.75-.83,1.75-1.82s-.78-1.82-1.75-1.82c-.02,0-.03,0-.05,0Z75.25,129.7c-.97,0-1.75.83-1.75,1.82,0,.22.18.4.4.4h0c.22,0,.4-.18.4-.4,0,0,0,0,0,0,0-.58.43-1.02.95-1.02s.95.44.95,1.02-.43,1.02-.95,1.02h-9.04c-.22,0-.4.18-.4.4,0,.22.18.4.4.4h9.04c.97,0,1.75-.83,1.75-1.82s-.78-1.82-1.75-1.82Z66.21,134.35c-.22,0-.4.18-.4.4h0c0,.22.18.4.4.4h5.65c.52,0,.95.44.95,1.02s-.43,1.02-.95,1.02-.95-.44-.95-1.02c0-.22-.18-.4-.4-.4,0,0,0,0,0,0-.22,0-.4.18-.4.4h0c0,.99.78,1.82,1.75,1.82s1.75-.83,1.75-1.82-.77-1.81-1.73-1.82c0,0-.02,0-.02,0h-5.65Z"/>

      <!-- Mont-de-Marsan -->
      <path id="40088_Air_Fond" fill="#61bda3" stroke="black" stroke-width=".25" d="M53.97,145.53c-4.66,0-8.46-3.79-8.46-8.46s3.79-8.46,8.46-8.46,8.46,3.79,8.46,8.46-3.79,8.46-8.46,8.46Z"/>
      <path id="40088_Air_Picto" fill="#fff" d="M53.57,132.03c-.95.03-1.71.84-1.71,1.82,0,.22.18.4.4.4,0,0,0,0,0,0,.22,0,.4-.18.4-.4,0,0,0,0,0,0,0-.58.43-1.02.95-1.02s.95.44.95,1.02-.43,1.02-.95,1.02h-4.85c-.22,0-.4.18-.4.4,0,.22.18.4.4.4h4.85c.97,0,1.75-.83,1.75-1.82s-.78-1.82-1.75-1.82c-.02,0-.03,0-.05,0Z57.81,133.84c-.97,0-1.75.83-1.75,1.82,0,.22.18.4.4.4h0c.22,0,.4-.18.4-.4,0,0,0,0,0,0,0-.58.43-1.02.95-1.02s.95.44.95,1.02-.43,1.02-.95,1.02h-9.04c-.22,0-.4.18-.4.4,0,.22.18.4.4.4h9.04c.97,0,1.75-.83,1.75-1.82s-.78-1.82-1.75-1.82Z48.77,138.48c-.22,0-.4.18-.4.4h0c0,.22.18.4.4.4h5.65c.52,0,.95.44.95,1.02s-.43,1.02-.95,1.02-.95-.44-.95-1.02c0-.22-.18-.4-.4-.4,0,0,0,0,0,0-.22,0-.4.18-.4.4h0c0,.99.78,1.82,1.75,1.82s1.75-.83,1.75-1.82-.77-1.81-1.73-1.82c0,0-.02,0-.02,0h-5.65Z"/>

      <!-- Bayonne -->
      <path id="64102_Air_Fond" fill="#61bda3" stroke="black" stroke-width=".25" d="M39.44,157.7c-4.66,0-8.46-3.79-8.46-8.46s3.79-8.46,8.46-8.46,8.46,3.79,8.46,8.46-3.79,8.46-8.46,8.46Z"/>
      <path id="64102_Air_Picto" fill="#fff" d="M39.05,144.2c-.95.03-1.71.84-1.71,1.82,0,.22.18.4.4.4,0,0,0,0,0,0,.22,0,.4-.18.4-.4,0,0,0,0,0,0,0-.58.43-1.02.95-1.02s.95.44.95,1.02-.43,1.02-.95,1.02h-4.85c-.22,0-.4.18-.4.4,0,.22.18.4.4.4h4.85c.97,0,1.75-.83,1.75-1.82s-.78-1.82-1.75-1.82c-.02,0-.03,0-.05,0Z43.29,146.01c-.97,0-1.75.83-1.75,1.82,0,.22.18.4.4.4h0c.22,0,.4-.18.4-.4,0,0,0,0,0,0,0-.58.43-1.02.95-1.02s.95.44.95,1.02-.43,1.02-.95,1.02h-9.04c-.22,0-.4.18-.4.4,0,.22.18.4.4.4h9.04c.97,0,1.75-.83,1.75-1.82s-.78-1.82-1.75-1.82Z34.25,150.65c-.22,0-.4.18-.4.4h0c0,.22.18.4.4.4h5.65c.52,0,.95.44.95,1.02s-.43,1.02-.95,1.02-.95-.44-.95-1.02c0-.22-.18-.4-.4-.4,0,0,0,0,0,0-.22,0-.4.18-.4.4h0c0,.99.78,1.82,1.75,1.82s1.75-.83,1.75-1.82-.77-1.81-1.73-1.82c0,0-.02,0-.02,0h-5.65Z"/>

      <!-- Pau -->
      <path id="64445_Air_Fond" fill="#61bda3" stroke="black" stroke-width=".25" d="M75.46,166.75c-4.66,0-8.46-3.79-8.46-8.46s3.79-8.46,8.46-8.46,8.46,3.79,8.46,8.46-3.79,8.46-8.46,8.46Z"/>
      <path id="64445_Air_Picto" fill="#fff" d="M75.07,153.25c-.95.03-1.71.84-1.71,1.82,0,.22.18.4.4.4,0,0,0,0,0,0,.22,0,.4-.18.4-.4,0,0,0,0,0,0,0-.58.43-1.02.95-1.02s.95.44.95,1.02-.43,1.02-.95,1.02h-4.85c-.22,0-.4.18-.4.4,0,.22.18.4.4.4h4.85c.97,0,1.75-.83,1.75-1.82s-.78-1.82-1.75-1.82c-.02,0-.03,0-.05,0Z79.31,155.06c-.97,0-1.75.83-1.75,1.82,0,.22.18.4.4.4h0c.22,0,.4-.18.4-.4,0,0,0,0,0,0,0-.58.43-1.02.95-1.02s.95.44.95,1.02-.43,1.02-.95,1.02h-9.04c-.22,0-.4.18-.4.4,0,.22.18.4.4.4h9.04c.97,0,1.75-.83,1.75-1.82s-.78-1.82-1.75-1.82Z70.27,159.71c-.22,0-.4.18-.4.4h0c0,.22.18.4.4.4h5.65c.52,0,.95.44.95,1.02s-.43,1.02-.95,1.02-.95-.44-.95-1.02c0-.22-.18-.4-.4-.4,0,0,0,0,0,0-.22,0-.4.18-.4.4h0c0,.99.78,1.82,1.75,1.82s1.75-.83,1.75-1.82-.77-1.81-1.73-1.82c0,0-.02,0-.02,0h-5.65Z"/>

      <!-- Marmande -->
      <path id="47157_Air_Fond" fill="#61bda3" stroke="black" stroke-width=".25" d="M91.57,115.97c-4.66,0-8.46-3.79-8.46-8.46s3.79-8.46,8.46-8.46,8.46,3.79,8.46,8.46-3.79,8.46-8.46,8.46Z"/>
      <path id="47157_Air_Picto" fill="#fff" d="M91.18,102.46c-.95.03-1.71.84-1.71,1.82,0,.22.18.4.4.4,0,0,0,0,0,0,.22,0,.4-.18.4-.4,0,0,0,0,0,0,0-.58.43-1.02.95-1.02s.95.44.95,1.02-.43,1.02-.95,1.02h-4.85c-.22,0-.4.18-.4.4,0,.22.18.4.4.4h4.85c.97,0,1.75-.83,1.75-1.82s-.78-1.82-1.75-1.82c-.02,0-.03,0-.05,0Z95.41,104.28c-.97,0-1.75.83-1.75,1.82,0,.22.18.4.4.4h0c.22,0,.4-.18.4-.4,0,0,0,0,0,0,0-.58.43-1.02.95-1.02s.95.44.95,1.02-.43,1.02-.95,1.02h-9.04c-.22,0-.4.18-.4.4,0,.22.18.4.4.4h9.04c.97,0,1.75-.83,1.75-1.82s-.78-1.82-1.75-1.82Z86.37,108.92c-.22,0-.4.18-.4.4h0c0,.22.18.4.4.4h5.65c.52,0,.95.44.95,1.02s-.43,1.02-.95,1.02-.95-.44-.95-1.02c0-.22-.18-.4-.4-.4,0,0,0,0,0,0-.22,0-.4.18-.4.4h0c0,.99.78,1.82,1.75,1.82s1.75-.83,1.75-1.82-.77-1.81-1.73-1.82c0,0-.02,0-.02,0h-5.65Z"/>

     <!-- Périgueux --> 
      <path id="24322_Air_Fond" fill="#61bda3" stroke="black" stroke-width=".25" d="M109.95,80.62c-4.66,0-8.46-3.79-8.46-8.46s3.79-8.46,8.46-8.46,8.46,3.79,8.46,8.46-3.79,8.46-8.46,8.46Z"/>
      <path id="24322_Air_Picto" fill="#fff" d="M109.56,67.12c-.95.03-1.71.84-1.71,1.82,0,.22.18.4.4.4,0,0,0,0,0,0,.22,0,.4-.18.4-.4,0,0,0,0,0,0,0-.58.43-1.02.95-1.02s.95.44.95,1.02-.43,1.02-.95,1.02h-4.85c-.22,0-.4.18-.4.4,0,.22.18.4.4.4h4.85c.97,0,1.75-.83,1.75-1.82s-.78-1.82-1.75-1.82c-.02,0-.03,0-.05,0Z113.79,68.93c-.97,0-1.75.83-1.75,1.82,0,.22.18.4.4.4h0c.22,0,.4-.18.4-.4,0,0,0,0,0,0,0-.58.43-1.02.95-1.02s.95.44.95,1.02-.43,1.02-.95,1.02h-9.04c-.22,0-.4.18-.4.4,0,.22.18.4.4.4h9.04c.97,0,1.75-.83,1.75-1.82s-.78-1.82-1.75-1.82Z104.75,73.58c-.22,0-.4.18-.4.4h0c0,.22.18.4.4.4h5.65c.52,0,.95.44.95,1.02s-.43,1.02-.95,1.02-.95-.44-.95-1.02c0-.22-.18-.4-.4-.4,0,0,0,0,0,0-.22,0-.4.18-.4.4h0c0,.99.78,1.82,1.75,1.82s1.75-.83,1.75-1.82-.77-1.81-1.73-1.82c0,0-.02,0-.02,0h-5.65Z"/>

      <!-- Bergerac -->
      <path id="24037_Air_Fond" fill="blue" stroke="black" stroke-width=".25" d="M102.81,98.15c-4.66,0-8.46-3.79-8.46-8.46s3.79-8.46,8.46-8.46,8.46,3.79,8.46,8.46-3.79,8.46-8.46,8.46Z"/>
      <path id="24037_Air_Picto" fill="#fff" d="M102.42,84.64c-.95.03-1.71.84-1.71,1.82,0,.22.18.4.4.4,0,0,0,0,0,0,.22,0,.4-.18.4-.4,0,0,0,0,0,0,0-.58.43-1.02.95-1.02s.95.44.95,1.02-.43,1.02-.95,1.02h-4.85c-.22,0-.4.18-.4.4,0,.22.18.4.4.4h4.85c.97,0,1.75-.83,1.75-1.82s-.78-1.82-1.75-1.82c-.02,0-.03,0-.05,0Z106.65,86.46c-.97,0-1.75.83-1.75,1.82,0,.22.18.4.4.4h0c.22,0,.4-.18.4-.4,0,0,0,0,0,0,0-.58.43-1.02.95-1.02s.95.44.95,1.02-.43,1.02-.95,1.02h-9.04c-.22,0-.4.18-.4.4,0,.22.18.4.4.4h9.04c.97,0,1.75-.83,1.75-1.82s-.78-1.82-1.75-1.82Z97.61,91.1c-.22,0-.4.18-.4.4h0c0,.22.18.4.4.4h5.65c.52,0,.95.44.95,1.02s-.43,1.02-.95,1.02-.95-.44-.95-1.02c0-.22-.18-.4-.4-.4,0,0,0,0,0,0-.22,0-.4.18-.4.4h0c0,.99.78,1.82,1.75,1.82s1.75-.83,1.75-1.82-.77-1.81-1.73-1.82c0,0-.02,0-.02,0h-5.65Z"/>

      <!-- La Rochelle -->
      <path id="17300_Air_Fond" fill="#7c2281" stroke="black" stroke-width=".25" d="M53.63,37.29c-4.66,0-8.46-3.79-8.46-8.46s3.79-8.46,8.46-8.46,8.46,3.79,8.46,8.46-3.79,8.46-8.46,8.46Z"/>
      <path id="17300_Air_Picto" fill="#fff" d="M53.23,23.79c-.95.03-1.71.84-1.71,1.82,0,.22.18.4.4.4,0,0,0,0,0,0,.22,0,.4-.18.4-.4,0,0,0,0,0,0,0-.58.43-1.02.95-1.02s.95.44.95,1.02-.43,1.02-.95,1.02h-4.85c-.22,0-.4.18-.4.4,0,.22.18.4.4.4h4.85c.97,0,1.75-.83,1.75-1.82s-.78-1.82-1.75-1.82c-.02,0-.03,0-.05,0Z57.47,25.6c-.97,0-1.75.83-1.75,1.82,0,.22.18.4.4.4h0c.22,0,.4-.18.4-.4,0,0,0,0,0,0,0-.58.43-1.02.95-1.02s.95.44.95,1.02-.43,1.02-.95,1.02h-9.04c-.22,0-.4.18-.4.4,0,.22.18.4.4.4h9.04c.97,0,1.75-.83,1.75-1.82s-.78-1.82-1.75-1.82Z48.43,30.25c-.22,0-.4.18-.4.4h0c0,.22.18.4.4.4h5.65c.52,0,.95.44.95,1.02s-.43,1.02-.95,1.02-.95-.44-.95-1.02c0-.22-.18-.4-.4-.4,0,0,0,0,0,0-.22,0-.4.18-.4.4h0c0,.99.78,1.82,1.75,1.82s1.75-.83,1.75-1.82-.77-1.81-1.73-1.82c0,0-.02,0-.02,0h-5.65Z"/>

       <!-- Rochefort -->
      <path id="17299_Air_Fond" fill="orange" stroke="black" stroke-width=".25" d="M65.1,52.35c-4.66,0-8.46-3.79-8.46-8.46s3.79-8.46,8.46-8.46,8.46,3.79,8.46,8.46-3.79,8.46-8.46,8.46Z"/>
      <path id="17299_Air_Picto" fill="#fff" d="M64.71,38.85c-.95.03-1.71.84-1.71,1.82,0,.22.18.4.4.4,0,0,0,0,0,0,.22,0,.4-.18.4-.4,0,0,0,0,0,0,0-.58.43-1.02.95-1.02s.95.44.95,1.02-.43,1.02-.95,1.02h-4.85c-.22,0-.4.18-.4.4,0,.22.18.4.4.4h4.85c.97,0,1.75-.83,1.75-1.82s-.78-1.82-1.75-1.82c-.02,0-.03,0-.05,0Z68.95,40.66c-.97,0-1.75.83-1.75,1.82,0,.22.18.4.4.4h0c.22,0,.4-.18.4-.4,0,0,0,0,0,0,0-.58.43-1.02.95-1.02s.95.44.95,1.02-.43,1.02-.95,1.02h-9.04c-.22,0-.4.18-.4.4,0,.22.18.4.4.4h9.04c.97,0,1.75-.83,1.75-1.82s-.78-1.82-1.75-1.82Z59.91,45.31c-.22,0-.4.18-.4.4h0c0,.22.18.4.4.4h5.65c.52,0,.95.44.95,1.02s-.43,1.02-.95,1.02-.95-.44-.95-1.02c0-.22-.18-.4-.4-.4,0,0,0,0,0,0-.22,0-.4.18-.4.4h0c0,.99.78,1.82,1.75,1.82s1.75-.83,1.75-1.82-.77-1.81-1.73-1.82c0,0-.02,0-.02,0h-5.65Z"/>
  </g>

  <!-- PARTIE POLLEN -->
  <g id="Pollen">
    <!-- Arcachon -->
    <path id="33009_Pollen" fill="red" stroke="black" stroke-width=".25" d="M199.84,105.92l-.09-.03-.61-.29c-.14-.07-.19-.23-.13-.37,1.72-3.83,3.8-5.87,5.54-6.96-3.68,1.57-4.87,5.24-4.88,5.29-.03.12-.14.2-.27.2-.17-.02-.28-.14-.28-.28,0-.29.08-7.11,7.05-7.9.18-.01,4.19-.25,5.9-1.6l.03-.03.14-.03s.09.01.13.04c.1.06.16.17.14.27,0,.09-1.17,9.98-8.53,9.98-.23,0-.47,0-.71-.03-.63-.05-1.11-.07-1.48-.07-.53,0-.8.04-.92.06l-.79,1.58c-.05.1-.14.16-.25.16h-.02Z"/>

    <!-- Bordeaux -->
    <path id="33063_Pollen" fill="#70caf3" stroke="black" stroke-width=".25" d="M221.84,94.92l-.09-.03-.61-.29c-.14-.07-.19-.23-.13-.37,1.72-3.83,3.8-5.87,5.54-6.96-3.68,1.57-4.87,5.24-4.88,5.29-.03.12-.14.2-.27.2-.17-.02-.28-.14-.28-.28,0-.29.08-7.11,7.05-7.9.18-.01,4.19-.25,5.9-1.6l.03-.03.14-.03s.09.01.13.04c.1.06.16.17.14.27,0,.09-1.17,9.98-8.53,9.98-.23,0-.47,0-.71-.03-.63-.05-1.11-.07-1.48-.07-.53,0-.8.04-.92.06l-.79,1.58c-.05.1-.14.16-.25.16h-.02Z"/>

    <!-- Libourne -->
    <path id="33243_Pollen" fill="#70caf3" stroke="black" stroke-width=".25" d="M228.84,93.92l-.09-.03-.61-.29c-.14-.07-.19-.23-.13-.37,1.72-3.83,3.8-5.87,5.54-6.96-3.68,1.57-4.87,5.24-4.88,5.29-.03.12-.14.2-.27.2-.17-.02-.28-.14-.28-.28,0-.29.08-7.11,7.05-7.9.18-.01,4.19-.25,5.9-1.6l.03-.03.14-.03s.09.01.13.04c.1.06.16.17.14.27,0,.09-1.17,9.98-8.53,9.98-.23,0-.47,0-.71-.03-.63-.05-1.11-.07-1.48-.07-.53,0-.8.04-.92.06l-.79,1.58c-.05.1-.14.16-.25.16h-.02Z"/>

    <!-- Bergerac -->
    <path id="24037_Pollen" fill="#70caf3" stroke="black" stroke-width=".25" d="M252.84,95.92l-.09-.03-.61-.29c-.14-.07-.19-.23-.13-.37,1.72-3.83,3.8-5.87,5.54-6.96-3.68,1.57-4.87,5.24-4.88,5.29-.03.12-.14.2-.27.2-.17-.02-.28-.14-.28-.28,0-.29.08-7.11,7.05-7.9.18-.01,4.19-.25,5.9-1.6l.03-.03.14-.03s.09.01.13.04c.1.06.16.17.14.27,0,.09-1.17,9.98-8.53,9.98-.23,0-.47,0-.71-.03-.63-.05-1.11-.07-1.48-.07-.53,0-.8.04-.92.06l-.79,1.58c-.05.1-.14.16-.25.16h-.02Z"/>

    <!-- Marmande -->
    <path id="47157_Pollen" fill="#70caf3" stroke="black" stroke-width=".25" d="M241.84,112.92l-.09-.03-.61-.29c-.14-.07-.19-.23-.13-.37,1.72-3.83,3.8-5.87,5.54-6.96-3.68,1.57-4.87,5.24-4.88,5.29-.03.12-.14.2-.27.2-.17-.02-.28-.14-.28-.28,0-.29.08-7.11,7.05-7.9.18-.01,4.19-.25,5.9-1.6l.03-.03.14-.03s.09.01.13.04c.1.06.16.17.14.27,0,.09-1.17,9.98-8.53,9.98-.23,0-.47,0-.71-.03-.63-.05-1.11-.07-1.48-.07-.53,0-.8.04-.92.06l-.79,1.58c-.05.1-.14.16-.25.16h-.02Z"/>

    <!-- Agen -->
    <path id="47001_Pollen" fill="orange" stroke="black" stroke-width=".25" d="M258.84,124.92l-.09-.03-.61-.29c-.14-.07-.19-.23-.13-.37,1.72-3.83,3.8-5.87,5.54-6.96-3.68,1.57-4.87,5.24-4.88,5.29-.03.12-.14.2-.27.2-.17-.02-.28-.14-.28-.28,0-.29.08-7.11,7.05-7.9.18-.01,4.19-.25,5.9-1.6l.03-.03.14-.03s.09.01.13.04c.1.06.16.17.14.27,0,.09-1.17,9.98-8.53,9.98-.23,0-.47,0-.71-.03-.63-.05-1.11-.07-1.48-.07-.53,0-.8.04-.92.06l-.79,1.58c-.05.1-.14.16-.25.16h-.02Z"/>

    <!-- Monte de Marsan -->
    <path id="40088_Pollen" fill="orange" stroke="black" stroke-width=".25" d="M221.84,139.92l-.09-.03-.61-.29c-.14-.07-.19-.23-.13-.37,1.72-3.83,3.8-5.87,5.54-6.96-3.68,1.57-4.87,5.24-4.88,5.29-.03.12-.14.2-.27.2-.17-.02-.28-.14-.28-.28,0-.29.08-7.11,7.05-7.9.18-.01,4.19-.25,5.9-1.6l.03-.03.14-.03s.09.01.13.04c.1.06.16.17.14.27,0,.09-1.17,9.98-8.53,9.98-.23,0-.47,0-.71-.03-.63-.05-1.11-.07-1.48-.07-.53,0-.8.04-.92.06l-.79,1.58c-.05.1-.14.16-.25.16h-.02Z"/>

    <!-- Dax -->
    <path id="40088_Pollen" fill="orange" stroke="black" stroke-width=".25" d="M203.84,143.92l-.09-.03-.61-.29c-.14-.07-.19-.23-.13-.37,1.72-3.83,3.8-5.87,5.54-6.96-3.68,1.57-4.87,5.24-4.88,5.29-.03.12-.14.2-.27.2-.17-.02-.28-.14-.28-.28,0-.29.08-7.11,7.05-7.9.18-.01,4.19-.25,5.9-1.6l.03-.03.14-.03s.09.01.13.04c.1.06.16.17.14.27,0,.09-1.17,9.98-8.53,9.98-.23,0-.47,0-.71-.03-.63-.05-1.11-.07-1.48-.07-.53,0-.8.04-.92.06l-.79,1.58c-.05.1-.14.16-.25.16h-.02Z"/>

    <!-- Rochefort -->
      <path id="17299_Pollen" fill="orange" stroke="black" stroke-width=".25" d="M215.84,48.92l-.09-.03-.61-.29c-.14-.07-.19-.23-.13-.37,1.72-3.83,3.8-5.87,5.54-6.96-3.68,1.57-4.87,5.24-4.88,5.29-.03.12-.14.2-.27.2-.17-.02-.28-.14-.28-.28,0-.29.08-7.11,7.05-7.9.18-.01,4.19-.25,5.9-1.6l.03-.03.14-.03s.09.01.13.04c.1.06.16.17.14.27,0,.09-1.17,9.98-8.53,9.98-.23,0-.47,0-.71-.03-.63-.05-1.11-.07-1.48-.07-.53,0-.8.04-.92.06l-.79,1.58c-.05.1-.14.16-.25.16h-.02Z"/>

    <!-- Bayonne -->
    <path id="64102_Pollen" fill="orange" stroke="black" stroke-width=".25" d="M189.84,154.92l-.09-.03-.61-.29c-.14-.07-.19-.23-.13-.37,1.72-3.83,3.8-5.87,5.54-6.96-3.68,1.57-4.87,5.24-4.88,5.29-.03.12-.14.2-.27.2-.17-.02-.28-.14-.28-.28,0-.29.08-7.11,7.05-7.9.18-.01,4.19-.25,5.9-1.6l.03-.03.14-.03s.09.01.13.04c.1.06.16.17.14.27,0,.09-1.17,9.98-8.53,9.98-.23,0-.47,0-.71-.03-.63-.05-1.11-.07-1.48-.07-.53,0-.8.04-.92.06l-.79,1.58c-.05.1-.14.16-.25.16h-.02Z"/>

    <!-- Pau --> 
    <path id="64445_Pollen" fill="#ea5254" stroke="black" stroke-width=".25" d="M223.84,164.92l-.09-.03-.61-.29c-.14-.07-.19-.23-.13-.37,1.72-3.83,3.8-5.87,5.54-6.96-3.68,1.57-4.87,5.24-4.88,5.29-.03.12-.14.2-.27.2-.17-.02-.28-.14-.28-.28,0-.29.08-7.11,7.05-7.9.18-.01,4.19-.25,5.9-1.6l.03-.03.14-.03s.09.01.13.04c.1.06.16.17.14.27,0,.09-1.17,9.98-8.53,9.98-.23,0-.47,0-.71-.03-.63-.05-1.11-.07-1.48-.07-.53,0-.8.04-.92.06l-.79,1.58c-.05.1-.14.16-.25.16h-.02Z"/>

    <!-- Périgueux --> 
    <path id="24322_Pollen" fill="#efe643" stroke="black" stroke-width=".25" d="M273.33,67.07c-.06-.03-.12-.02-.17.01-1.78,1.4-5.92,1.63-5.97,1.63-6.86.78-6.94,7.49-6.94,7.78,0,.08.06.14.13.15.07,0,.15-.03.17-.11.02-.06,1.52-4.71,6.39-5.83-1.92.8-4.65,2.77-6.82,7.59-.03.08,0,.17.07.2l.6.28s.04.02.06.02c.06,0,.11-.03.14-.09l.82-1.64c.16-.04.77-.15,2.49,0,.24.02.47.03.7.03,7.26,0,8.39-9.77,8.4-9.87,0-.06-.02-.11-.08-.14h0Z"/>
    
    <!-- La Rochelle -->
    <path id="17300_Pollen" fill="#70caf3" stroke="black" stroke-width=".25" d="M203.84,33.92l-.09-.03-.61-.29c-.14-.07-.19-.23-.13-.37,1.72-3.83,3.8-5.87,5.54-6.96-3.68,1.57-4.87,5.24-4.88,5.29-.03.12-.14.2-.27.2-.17-.02-.28-.14-.28-.28,0-.29.08-7.11,7.05-7.9.18-.01,4.19-.25,5.9-1.6l.03-.03.14-.03s.09.01.13.04c.1.06.16.17.14.27,0,.09-1.17,9.98-8.53,9.98-.23,0-.47,0-.71-.03-.63-.05-1.11-.07-1.48-.07-.53,0-.8.04-.92.06l-.79,1.58c-.05.1-.14.16-.25.16h-.02Z"/>
  </g>
</svg>