<?xml version="1.0" encoding="UTF-8"?>
<svg xmlns="http://www.w3.org/2000/svg" width="154mm" height="76.4mm" viewBox="0 0 436.54 216.57">
  <defs>
    <style>
      .cls-1 {
        fill: #70caf3;
      }

      .cls-2 {
        fill: #ea5254;
      }

      .cls-3 {
        fill: #7c2281;
      }

      .cls-4 {
        fill: #1d1d1b;
      }

      .cls-5 {
        fill: #fff;
      }

      .cls-6 {
        fill: none;
        stroke: #000;
        stroke-width: .5px;
      }

      .cls-6, .cls-7 {
        stroke-miterlimit: 10;
      }

      .cls-7 {
        fill: #efe643;
        stroke: #1d1d1b;
        stroke-width: .25px;
      }

      .cls-8 {
        fill: #61bda3;
      }
    </style>
  </defs>
  <g id="Pictos">
    <g>
      <g>
        <path class="cls-2" d="M65.1,52.35c-4.66,0-8.46-3.79-8.46-8.46s3.79-8.46,8.46-8.46,8.46,3.79,8.46,8.46-3.79,8.46-8.46,8.46Z"/>
        <path class="cls-4" d="M65.1,35.69c4.53,0,8.21,3.67,8.21,8.21s-3.67,8.21-8.21,8.21-8.21-3.67-8.21-8.21,3.67-8.21,8.21-8.21M65.1,35.19c-4.8,0-8.71,3.91-8.71,8.71s3.91,8.71,8.71,8.71,8.71-3.91,8.71-8.71-3.91-8.71-8.71-8.71h0Z"/>
      </g>
      <path class="cls-5" d="M64.71,38.85c-.95.03-1.71.84-1.71,1.82,0,.22.18.4.4.4,0,0,0,0,0,0,.22,0,.4-.18.4-.4,0,0,0,0,0,0,0-.58.43-1.02.95-1.02s.95.44.95,1.02-.43,1.02-.95,1.02h-4.85c-.22,0-.4.18-.4.4,0,.22.18.4.4.4h4.85c.97,0,1.75-.83,1.75-1.82s-.78-1.82-1.75-1.82c-.02,0-.03,0-.05,0ZM68.95,40.66c-.97,0-1.75.83-1.75,1.82,0,.22.18.4.4.4h0c.22,0,.4-.18.4-.4,0,0,0,0,0,0,0-.58.43-1.02.95-1.02s.95.44.95,1.02-.43,1.02-.95,1.02h-9.04c-.22,0-.4.18-.4.4,0,.22.18.4.4.4h9.04c.97,0,1.75-.83,1.75-1.82s-.78-1.82-1.75-1.82ZM59.91,45.31c-.22,0-.4.18-.4.4h0c0,.22.18.4.4.4h5.65c.52,0,.95.44.95,1.02s-.43,1.02-.95,1.02-.95-.44-.95-1.02c0-.22-.18-.4-.4-.4,0,0,0,0,0,0-.22,0-.4.18-.4.4h0c0,.99.78,1.82,1.75,1.82s1.75-.83,1.75-1.82-.77-1.81-1.73-1.82c0,0-.02,0-.02,0h-5.65Z"/>
    </g>
    <g>
      <g>
        <path class="cls-8" d="M109.95,80.62c-4.66,0-8.46-3.79-8.46-8.46s3.79-8.46,8.46-8.46,8.46,3.79,8.46,8.46-3.79,8.46-8.46,8.46Z"/>
        <path class="cls-4" d="M109.95,63.96c4.53,0,8.21,3.67,8.21,8.21s-3.67,8.21-8.21,8.21-8.21-3.67-8.21-8.21,3.67-8.21,8.21-8.21M109.95,63.46c-4.8,0-8.71,3.91-8.71,8.71s3.91,8.71,8.71,8.71,8.71-3.91,8.71-8.71-3.91-8.71-8.71-8.71h0Z"/>
      </g>
      <path class="cls-5" d="M109.56,67.12c-.95.03-1.71.84-1.71,1.82,0,.22.18.4.4.4,0,0,0,0,0,0,.22,0,.4-.18.4-.4,0,0,0,0,0,0,0-.58.43-1.02.95-1.02s.95.44.95,1.02-.43,1.02-.95,1.02h-4.85c-.22,0-.4.18-.4.4,0,.22.18.4.4.4h4.85c.97,0,1.75-.83,1.75-1.82s-.78-1.82-1.75-1.82c-.02,0-.03,0-.05,0ZM113.79,68.93c-.97,0-1.75.83-1.75,1.82,0,.22.18.4.4.4h0c.22,0,.4-.18.4-.4,0,0,0,0,0,0,0-.58.43-1.02.95-1.02s.95.44.95,1.02-.43,1.02-.95,1.02h-9.04c-.22,0-.4.18-.4.4,0,.22.18.4.4.4h9.04c.97,0,1.75-.83,1.75-1.82s-.78-1.82-1.75-1.82ZM104.75,73.58c-.22,0-.4.18-.4.4h0c0,.22.18.4.4.4h5.65c.52,0,.95.44.95,1.02s-.43,1.02-.95,1.02-.95-.44-.95-1.02c0-.22-.18-.4-.4-.4,0,0,0,0,0,0-.22,0-.4.18-.4.4h0c0,.99.78,1.82,1.75,1.82s1.75-.83,1.75-1.82-.77-1.81-1.73-1.82c0,0-.02,0-.02,0h-5.65Z"/>
    </g>
    <g>
      <g>
        <path class="cls-8" d="M102.81,98.15c-4.66,0-8.46-3.79-8.46-8.46s3.79-8.46,8.46-8.46,8.46,3.79,8.46,8.46-3.79,8.46-8.46,8.46Z"/>
        <path class="cls-4" d="M102.81,81.49c4.53,0,8.21,3.67,8.21,8.21s-3.67,8.21-8.21,8.21-8.21-3.67-8.21-8.21,3.67-8.21,8.21-8.21M102.81,80.99c-4.8,0-8.71,3.91-8.71,8.71s3.91,8.71,8.71,8.71,8.71-3.91,8.71-8.71-3.91-8.71-8.71-8.71h0Z"/>
      </g>
      <path class="cls-5" d="M102.42,84.64c-.95.03-1.71.84-1.71,1.82,0,.22.18.4.4.4,0,0,0,0,0,0,.22,0,.4-.18.4-.4,0,0,0,0,0,0,0-.58.43-1.02.95-1.02s.95.44.95,1.02-.43,1.02-.95,1.02h-4.85c-.22,0-.4.18-.4.4,0,.22.18.4.4.4h4.85c.97,0,1.75-.83,1.75-1.82s-.78-1.82-1.75-1.82c-.02,0-.03,0-.05,0ZM106.65,86.46c-.97,0-1.75.83-1.75,1.82,0,.22.18.4.4.4h0c.22,0,.4-.18.4-.4,0,0,0,0,0,0,0-.58.43-1.02.95-1.02s.95.44.95,1.02-.43,1.02-.95,1.02h-9.04c-.22,0-.4.18-.4.4,0,.22.18.4.4.4h9.04c.97,0,1.75-.83,1.75-1.82s-.78-1.82-1.75-1.82ZM97.61,91.1c-.22,0-.4.18-.4.4h0c0,.22.18.4.4.4h5.65c.52,0,.95.44.95,1.02s-.43,1.02-.95,1.02-.95-.44-.95-1.02c0-.22-.18-.4-.4-.4,0,0,0,0,0,0-.22,0-.4.18-.4.4h0c0,.99.78,1.82,1.75,1.82s1.75-.83,1.75-1.82-.77-1.81-1.73-1.82c0,0-.02,0-.02,0h-5.65Z"/>
    </g>
    <g>
      <g>
        <path class="cls-8" d="M70.14,97.28c-4.66,0-8.46-3.79-8.46-8.46s3.79-8.46,8.46-8.46,8.46,3.79,8.46,8.46-3.79,8.46-8.46,8.46Z"/>
        <path class="cls-4" d="M70.14,80.62c4.53,0,8.21,3.67,8.21,8.21s-3.67,8.21-8.21,8.21-8.21-3.67-8.21-8.21,3.67-8.21,8.21-8.21M70.14,80.12c-4.8,0-8.71,3.91-8.71,8.71s3.91,8.71,8.71,8.71,8.71-3.91,8.71-8.71-3.91-8.71-8.71-8.71h0Z"/>
      </g>
      <path class="cls-5" d="M69.75,83.78c-.95.03-1.71.84-1.71,1.82,0,.22.18.4.4.4,0,0,0,0,0,0,.22,0,.4-.18.4-.4,0,0,0,0,0,0,0-.58.43-1.02.95-1.02s.95.44.95,1.02-.43,1.02-.95,1.02h-4.85c-.22,0-.4.18-.4.4,0,.22.18.4.4.4h4.85c.97,0,1.75-.83,1.75-1.82s-.78-1.82-1.75-1.82c-.02,0-.03,0-.05,0ZM73.98,85.59c-.97,0-1.75.83-1.75,1.82,0,.22.18.4.4.4h0c.22,0,.4-.18.4-.4,0,0,0,0,0,0,0-.58.43-1.02.95-1.02s.95.44.95,1.02-.43,1.02-.95,1.02h-9.04c-.22,0-.4.18-.4.4,0,.22.18.4.4.4h9.04c.97,0,1.75-.83,1.75-1.82s-.78-1.82-1.75-1.82ZM64.94,90.24c-.22,0-.4.18-.4.4h0c0,.22.18.4.4.4h5.65c.52,0,.95.44.95,1.02s-.43,1.02-.95,1.02-.95-.44-.95-1.02c0-.22-.18-.4-.4-.4,0,0,0,0,0,0-.22,0-.4.18-.4.4h0c0,.99.78,1.82,1.75,1.82s1.75-.83,1.75-1.82-.77-1.81-1.73-1.82c0,0-.02,0-.02,0h-5.65Z"/>
    </g>
    <g>
      <g>
        <path class="cls-8" d="M78.79,96.42c-4.66,0-8.46-3.79-8.46-8.46s3.79-8.46,8.46-8.46,8.46,3.79,8.46,8.46-3.79,8.46-8.46,8.46Z"/>
        <path class="cls-4" d="M78.79,79.76c4.53,0,8.21,3.67,8.21,8.21s-3.67,8.21-8.21,8.21-8.21-3.67-8.21-8.21,3.67-8.21,8.21-8.21M78.79,79.26c-4.8,0-8.71,3.91-8.71,8.71s3.91,8.71,8.71,8.71,8.71-3.91,8.71-8.71-3.91-8.71-8.71-8.71h0Z"/>
      </g>
      <path class="cls-5" d="M78.4,82.91c-.95.03-1.71.84-1.71,1.82,0,.22.18.4.4.4,0,0,0,0,0,0,.22,0,.4-.18.4-.4,0,0,0,0,0,0,0-.58.43-1.02.95-1.02s.95.44.95,1.02-.43,1.02-.95,1.02h-4.85c-.22,0-.4.18-.4.4,0,.22.18.4.4.4h4.85c.97,0,1.75-.83,1.75-1.82s-.78-1.82-1.75-1.82c-.02,0-.03,0-.05,0ZM82.64,84.72c-.97,0-1.75.83-1.75,1.82,0,.22.18.4.4.4h0c.22,0,.4-.18.4-.4,0,0,0,0,0,0,0-.58.43-1.02.95-1.02s.95.44.95,1.02-.43,1.02-.95,1.02h-9.04c-.22,0-.4.18-.4.4,0,.22.18.4.4.4h9.04c.97,0,1.75-.83,1.75-1.82s-.78-1.82-1.75-1.82ZM73.6,89.37c-.22,0-.4.18-.4.4h0c0,.22.18.4.4.4h5.65c.52,0,.95.44.95,1.02s-.43,1.02-.95,1.02-.95-.44-.95-1.02c0-.22-.18-.4-.4-.4,0,0,0,0,0,0-.22,0-.4.18-.4.4h0c0,.99.78,1.82,1.75,1.82s1.75-.83,1.75-1.82-.77-1.81-1.73-1.82c0,0-.02,0-.02,0h-5.65Z"/>
    </g>
    <g>
      <g>
        <path class="cls-8" d="M108.65,127.36c-4.66,0-8.46-3.79-8.46-8.46s3.79-8.46,8.46-8.46,8.46,3.79,8.46,8.46-3.79,8.46-8.46,8.46Z"/>
        <path class="cls-4" d="M108.65,110.69c4.53,0,8.21,3.67,8.21,8.21s-3.67,8.21-8.21,8.21-8.21-3.67-8.21-8.21,3.67-8.21,8.21-8.21M108.65,110.19c-4.8,0-8.71,3.91-8.71,8.71s3.91,8.71,8.71,8.71,8.71-3.91,8.71-8.71-3.91-8.71-8.71-8.71h0Z"/>
      </g>
      <path class="cls-5" d="M108.26,113.85c-.95.03-1.71.84-1.71,1.82,0,.22.18.4.4.4,0,0,0,0,0,0,.22,0,.4-.18.4-.4,0,0,0,0,0,0,0-.58.43-1.02.95-1.02s.95.44.95,1.02-.43,1.02-.95,1.02h-4.85c-.22,0-.4.18-.4.4,0,.22.18.4.4.4h4.85c.97,0,1.75-.83,1.75-1.82s-.78-1.82-1.75-1.82c-.02,0-.03,0-.05,0ZM112.49,115.66c-.97,0-1.75.83-1.75,1.82,0,.22.18.4.4.4h0c.22,0,.4-.18.4-.4,0,0,0,0,0,0,0-.58.43-1.02.95-1.02s.95.44.95,1.02-.43,1.02-.95,1.02h-9.04c-.22,0-.4.18-.4.4,0,.22.18.4.4.4h9.04c.97,0,1.75-.83,1.75-1.82s-.78-1.82-1.75-1.82ZM103.45,120.31c-.22,0-.4.18-.4.4h0c0,.22.18.4.4.4h5.65c.52,0,.95.44.95,1.02s-.43,1.02-.95,1.02-.95-.44-.95-1.02c0-.22-.18-.4-.4-.4,0,0,0,0,0,0-.22,0-.4.18-.4.4h0c0,.99.78,1.82,1.75,1.82s1.75-.83,1.75-1.82-.77-1.81-1.73-1.82c0,0-.02,0-.02,0h-5.65Z"/>
    </g>
    <g>
      <g>
        <path class="cls-8" d="M71.41,141.39c-4.66,0-8.46-3.79-8.46-8.46s3.79-8.46,8.46-8.46,8.46,3.79,8.46,8.46-3.79,8.46-8.46,8.46Z"/>
        <path class="cls-4" d="M71.41,124.73c4.53,0,8.21,3.67,8.21,8.21s-3.67,8.21-8.21,8.21-8.21-3.67-8.21-8.21,3.67-8.21,8.21-8.21M71.41,124.23c-4.8,0-8.71,3.91-8.71,8.71s3.91,8.71,8.71,8.71,8.71-3.91,8.71-8.71-3.91-8.71-8.71-8.71h0Z"/>
      </g>
      <path class="cls-5" d="M71.02,127.89c-.95.03-1.71.84-1.71,1.82,0,.22.18.4.4.4,0,0,0,0,0,0,.22,0,.4-.18.4-.4,0,0,0,0,0,0,0-.58.43-1.02.95-1.02s.95.44.95,1.02-.43,1.02-.95,1.02h-4.85c-.22,0-.4.18-.4.4,0,.22.18.4.4.4h4.85c.97,0,1.75-.83,1.75-1.82s-.78-1.82-1.75-1.82c-.02,0-.03,0-.05,0ZM75.25,129.7c-.97,0-1.75.83-1.75,1.82,0,.22.18.4.4.4h0c.22,0,.4-.18.4-.4,0,0,0,0,0,0,0-.58.43-1.02.95-1.02s.95.44.95,1.02-.43,1.02-.95,1.02h-9.04c-.22,0-.4.18-.4.4,0,.22.18.4.4.4h9.04c.97,0,1.75-.83,1.75-1.82s-.78-1.82-1.75-1.82ZM66.21,134.35c-.22,0-.4.18-.4.4h0c0,.22.18.4.4.4h5.65c.52,0,.95.44.95,1.02s-.43,1.02-.95,1.02-.95-.44-.95-1.02c0-.22-.18-.4-.4-.4,0,0,0,0,0,0-.22,0-.4.18-.4.4h0c0,.99.78,1.82,1.75,1.82s1.75-.83,1.75-1.82-.77-1.81-1.73-1.82c0,0-.02,0-.02,0h-5.65Z"/>
    </g>
    <g>
      <g>
        <path class="cls-8" d="M53.97,145.53c-4.66,0-8.46-3.79-8.46-8.46s3.79-8.46,8.46-8.46,8.46,3.79,8.46,8.46-3.79,8.46-8.46,8.46Z"/>
        <path class="cls-4" d="M53.97,128.87c4.53,0,8.21,3.67,8.21,8.21s-3.67,8.21-8.21,8.21-8.21-3.67-8.21-8.21,3.67-8.21,8.21-8.21M53.97,128.37c-4.8,0-8.71,3.91-8.71,8.71s3.91,8.71,8.71,8.71,8.71-3.91,8.71-8.71-3.91-8.71-8.71-8.71h0Z"/>
      </g>
      <path class="cls-5" d="M53.58,132.03c-.95.03-1.71.84-1.71,1.82,0,.22.18.4.4.4,0,0,0,0,0,0,.22,0,.4-.18.4-.4,0,0,0,0,0,0,0-.58.43-1.02.95-1.02s.95.44.95,1.02-.43,1.02-.95,1.02h-4.85c-.22,0-.4.18-.4.4,0,.22.18.4.4.4h4.85c.97,0,1.75-.83,1.75-1.82s-.78-1.82-1.75-1.82c-.02,0-.03,0-.05,0ZM57.81,133.84c-.97,0-1.75.83-1.75,1.82,0,.22.18.4.4.4h0c.22,0,.4-.18.4-.4,0,0,0,0,0,0,0-.58.43-1.02.95-1.02s.95.44.95,1.02-.43,1.02-.95,1.02h-9.04c-.22,0-.4.18-.4.4,0,.22.18.4.4.4h9.04c.97,0,1.75-.83,1.75-1.82s-.78-1.82-1.75-1.82ZM48.77,138.48c-.22,0-.4.18-.4.4h0c0,.22.18.4.4.4h5.65c.52,0,.95.44.95,1.02s-.43,1.02-.95,1.02-.95-.44-.95-1.02c0-.22-.18-.4-.4-.4,0,0,0,0,0,0-.22,0-.4.18-.4.4h0c0,.99.78,1.82,1.75,1.82s1.75-.83,1.75-1.82-.77-1.81-1.73-1.82c0,0-.02,0-.02,0h-5.65Z"/>
    </g>
    <g>
      <g>
        <path class="cls-8" d="M39.44,157.7c-4.66,0-8.46-3.79-8.46-8.46s3.79-8.46,8.46-8.46,8.46,3.79,8.46,8.46-3.79,8.46-8.46,8.46Z"/>
        <path class="cls-4" d="M39.44,141.04c4.53,0,8.21,3.67,8.21,8.21s-3.67,8.21-8.21,8.21-8.21-3.67-8.21-8.21,3.67-8.21,8.21-8.21M39.44,140.54c-4.8,0-8.71,3.91-8.71,8.71s3.91,8.71,8.71,8.71,8.71-3.91,8.71-8.71-3.91-8.71-8.71-8.71h0Z"/>
      </g>
      <path class="cls-5" d="M39.05,144.2c-.95.03-1.71.84-1.71,1.82,0,.22.18.4.4.4,0,0,0,0,0,0,.22,0,.4-.18.4-.4,0,0,0,0,0,0,0-.58.43-1.02.95-1.02s.95.44.95,1.02-.43,1.02-.95,1.02h-4.85c-.22,0-.4.18-.4.4,0,.22.18.4.4.4h4.85c.97,0,1.75-.83,1.75-1.82s-.78-1.82-1.75-1.82c-.02,0-.03,0-.05,0ZM43.29,146.01c-.97,0-1.75.83-1.75,1.82,0,.22.18.4.4.4h0c.22,0,.4-.18.4-.4,0,0,0,0,0,0,0-.58.43-1.02.95-1.02s.95.44.95,1.02-.43,1.02-.95,1.02h-9.04c-.22,0-.4.18-.4.4,0,.22.18.4.4.4h9.04c.97,0,1.75-.83,1.75-1.82s-.78-1.82-1.75-1.82ZM34.25,150.65c-.22,0-.4.18-.4.4h0c0,.22.18.4.4.4h5.65c.52,0,.95.44.95,1.02s-.43,1.02-.95,1.02-.95-.44-.95-1.02c0-.22-.18-.4-.4-.4,0,0,0,0,0,0-.22,0-.4.18-.4.4h0c0,.99.78,1.82,1.75,1.82s1.75-.83,1.75-1.82-.77-1.81-1.73-1.82c0,0-.02,0-.02,0h-5.65Z"/>
    </g>
    <g>
      <g>
        <path class="cls-8" d="M75.46,166.75c-4.66,0-8.46-3.79-8.46-8.46s3.79-8.46,8.46-8.46,8.46,3.79,8.46,8.46-3.79,8.46-8.46,8.46Z"/>
        <path class="cls-4" d="M75.46,150.09c4.53,0,8.21,3.67,8.21,8.21s-3.67,8.21-8.21,8.21-8.21-3.67-8.21-8.21,3.67-8.21,8.21-8.21M75.46,149.59c-4.8,0-8.71,3.91-8.71,8.71s3.91,8.71,8.71,8.71,8.71-3.91,8.71-8.71-3.91-8.71-8.71-8.71h0Z"/>
      </g>
      <path class="cls-5" d="M75.07,153.25c-.95.03-1.71.84-1.71,1.82,0,.22.18.4.4.4,0,0,0,0,0,0,.22,0,.4-.18.4-.4,0,0,0,0,0,0,0-.58.43-1.02.95-1.02s.95.44.95,1.02-.43,1.02-.95,1.02h-4.85c-.22,0-.4.18-.4.4,0,.22.18.4.4.4h4.85c.97,0,1.75-.83,1.75-1.82s-.78-1.82-1.75-1.82c-.02,0-.03,0-.05,0ZM79.31,155.06c-.97,0-1.75.83-1.75,1.82,0,.22.18.4.4.4h0c.22,0,.4-.18.4-.4,0,0,0,0,0,0,0-.58.43-1.02.95-1.02s.95.44.95,1.02-.43,1.02-.95,1.02h-9.04c-.22,0-.4.18-.4.4,0,.22.18.4.4.4h9.04c.97,0,1.75-.83,1.75-1.82s-.78-1.82-1.75-1.82ZM70.27,159.71c-.22,0-.4.18-.4.4h0c0,.22.18.4.4.4h5.65c.52,0,.95.44.95,1.02s-.43,1.02-.95,1.02-.95-.44-.95-1.02c0-.22-.18-.4-.4-.4,0,0,0,0,0,0-.22,0-.4.18-.4.4h0c0,.99.78,1.82,1.75,1.82s1.75-.83,1.75-1.82-.77-1.81-1.73-1.82c0,0-.02,0-.02,0h-5.65Z"/>
    </g>
    <g>
      <g>
        <path class="cls-8" d="M91.57,115.97c-4.66,0-8.46-3.79-8.46-8.46s3.79-8.46,8.46-8.46,8.46,3.79,8.46,8.46-3.79,8.46-8.46,8.46Z"/>
        <path class="cls-4" d="M91.57,99.31c4.53,0,8.21,3.67,8.21,8.21s-3.67,8.21-8.21,8.21-8.21-3.67-8.21-8.21,3.67-8.21,8.21-8.21M91.57,98.81c-4.8,0-8.71,3.91-8.71,8.71s3.91,8.71,8.71,8.71,8.71-3.91,8.71-8.71-3.91-8.71-8.71-8.71h0Z"/>
      </g>
      <path class="cls-5" d="M91.18,102.46c-.95.03-1.71.84-1.71,1.82,0,.22.18.4.4.4,0,0,0,0,0,0,.22,0,.4-.18.4-.4,0,0,0,0,0,0,0-.58.43-1.02.95-1.02s.95.44.95,1.02-.43,1.02-.95,1.02h-4.85c-.22,0-.4.18-.4.4,0,.22.18.4.4.4h4.85c.97,0,1.75-.83,1.75-1.82s-.78-1.82-1.75-1.82c-.02,0-.03,0-.05,0ZM95.41,104.28c-.97,0-1.75.83-1.75,1.82,0,.22.18.4.4.4h0c.22,0,.4-.18.4-.4,0,0,0,0,0,0,0-.58.43-1.02.95-1.02s.95.44.95,1.02-.43,1.02-.95,1.02h-9.04c-.22,0-.4.18-.4.4,0,.22.18.4.4.4h9.04c.97,0,1.75-.83,1.75-1.82s-.78-1.82-1.75-1.82ZM86.37,108.92c-.22,0-.4.18-.4.4h0c0,.22.18.4.4.4h5.65c.52,0,.95.44.95,1.02s-.43,1.02-.95,1.02-.95-.44-.95-1.02c0-.22-.18-.4-.4-.4,0,0,0,0,0,0-.22,0-.4.18-.4.4h0c0,.99.78,1.82,1.75,1.82s1.75-.83,1.75-1.82-.77-1.81-1.73-1.82c0,0-.02,0-.02,0h-5.65Z"/>
    </g>
    <g>
      <g>
        <path class="cls-8" d="M49.38,107.55c-4.66,0-8.46-3.79-8.46-8.46s3.79-8.46,8.46-8.46,8.46,3.79,8.46,8.46-3.79,8.46-8.46,8.46Z"/>
        <path class="cls-4" d="M49.38,90.88c4.53,0,8.21,3.67,8.21,8.21s-3.67,8.21-8.21,8.21-8.21-3.67-8.21-8.21,3.67-8.21,8.21-8.21M49.38,90.38c-4.8,0-8.71,3.91-8.71,8.71s3.91,8.71,8.71,8.71,8.71-3.91,8.71-8.71-3.91-8.71-8.71-8.71h0Z"/>
      </g>
      <path class="cls-5" d="M48.98,94.04c-.95.03-1.71.84-1.71,1.82,0,.22.18.4.4.4,0,0,0,0,0,0,.22,0,.4-.18.4-.4,0,0,0,0,0,0,0-.58.43-1.02.95-1.02s.95.44.95,1.02-.43,1.02-.95,1.02h-4.85c-.22,0-.4.18-.4.4,0,.22.18.4.4.4h4.85c.97,0,1.75-.83,1.75-1.82s-.78-1.82-1.75-1.82c-.02,0-.03,0-.05,0ZM53.22,95.85c-.97,0-1.75.83-1.75,1.82,0,.22.18.4.4.4h0c.22,0,.4-.18.4-.4,0,0,0,0,0,0,0-.58.43-1.02.95-1.02s.95.44.95,1.02-.43,1.02-.95,1.02h-9.04c-.22,0-.4.18-.4.4,0,.22.18.4.4.4h9.04c.97,0,1.75-.83,1.75-1.82s-.78-1.82-1.75-1.82ZM44.18,100.5c-.22,0-.4.18-.4.4h0c0,.22.18.4.4.4h5.65c.52,0,.95.44.95,1.02s-.43,1.02-.95,1.02-.95-.44-.95-1.02c0-.22-.18-.4-.4-.4,0,0,0,0,0,0-.22,0-.4.18-.4.4h0c0,.99.78,1.82,1.75,1.82s1.75-.83,1.75-1.82-.77-1.81-1.73-1.82c0,0-.02,0-.02,0h-5.65Z"/>
    </g>
    <g id="_17300_Air_Fond" data-name="17300_Air_Fond">
      <path class="cls-3" d="M53.63,37.29c-4.66,0-8.46-3.79-8.46-8.46s3.79-8.46,8.46-8.46,8.46,3.79,8.46,8.46-3.79,8.46-8.46,8.46Z"/>
      <path class="cls-4" d="M53.63,20.63c4.53,0,8.21,3.67,8.21,8.21s-3.67,8.21-8.21,8.21-8.21-3.67-8.21-8.21,3.67-8.21,8.21-8.21M53.63,20.13c-4.8,0-8.71,3.91-8.71,8.71s3.91,8.71,8.71,8.71,8.71-3.91,8.71-8.71-3.91-8.71-8.71-8.71h0Z"/>
    </g>
    <g id="_17300_Air_Picto" data-name="17300_Air_Picto">
      <path class="cls-5" d="M53.23,23.79c-.95.03-1.71.84-1.71,1.82,0,.22.18.4.4.4,0,0,0,0,0,0,.22,0,.4-.18.4-.4,0,0,0,0,0,0,0-.58.43-1.02.95-1.02s.95.44.95,1.02-.43,1.02-.95,1.02h-4.85c-.22,0-.4.18-.4.4,0,.22.18.4.4.4h4.85c.97,0,1.75-.83,1.75-1.82s-.78-1.82-1.75-1.82c-.02,0-.03,0-.05,0ZM57.47,25.6c-.97,0-1.75.83-1.75,1.82,0,.22.18.4.4.4h0c.22,0,.4-.18.4-.4,0,0,0,0,0,0,0-.58.43-1.02.95-1.02s.95.44.95,1.02-.43,1.02-.95,1.02h-9.04c-.22,0-.4.18-.4.4,0,.22.18.4.4.4h9.04c.97,0,1.75-.83,1.75-1.82s-.78-1.82-1.75-1.82ZM48.43,30.25c-.22,0-.4.18-.4.4h0c0,.22.18.4.4.4h5.65c.52,0,.95.44.95,1.02s-.43,1.02-.95,1.02-.95-.44-.95-1.02c0-.22-.18-.4-.4-.4,0,0,0,0,0,0-.22,0-.4.18-.4.4h0c0,.99.78,1.82,1.75,1.82s1.75-.83,1.75-1.82-.77-1.81-1.73-1.82c0,0-.02,0-.02,0h-5.65Z"/>
    </g>
    <g>
      <path class="cls-1" d="M215.84,48.92l-.09-.03-.61-.29c-.14-.07-.2-.23-.13-.37,1.72-3.82,3.79-5.86,5.54-6.96-3.66,1.57-4.86,5.24-4.87,5.28-.03.12-.14.2-.27.2-.17-.02-.28-.14-.28-.28,0-.29.08-7.11,7.05-7.9.18,0,4.19-.25,5.9-1.6l.03-.03.14-.03s.09.01.13.04c.1.06.16.17.14.28,0,.09-1.19,9.98-8.52,9.98-.23,0-.47,0-.71-.03-.63-.05-1.11-.07-1.47-.07-.53,0-.8.04-.92.06l-.79,1.58c-.05.09-.14.16-.25.16h-.02Z"/>
      <path class="cls-4" d="M228.25,37.05s.05,0,.08.02h0c.05.03.09.09.08.14,0,.1-1.14,9.87-8.4,9.87-.23,0-.46,0-.7-.03-.64-.05-1.12-.07-1.49-.07-.62,0-.9.05-1,.08l-.82,1.64c-.03.06-.08.09-.14.09-.02,0-.04,0-.06-.02l-.6-.28c-.07-.04-.11-.13-.07-.2,2.17-4.83,4.9-6.79,6.82-7.59-4.87,1.12-6.37,5.78-6.39,5.83-.02.07-.08.11-.15.11,0,0-.01,0-.02,0-.08,0-.13-.07-.13-.15,0-.29.08-7,6.94-7.78.05,0,4.19-.23,5.97-1.63.03-.02.06-.03.09-.03M228.25,36.8c-.09,0-.17.03-.24.08-1.68,1.33-5.66,1.57-5.83,1.58-7.1.81-7.18,7.73-7.18,8.03,0,.2.15.37.35.4,0,0,0,0,0,0,.07,0,.13-.01.18-.03-.22.42-.44.86-.65,1.33-.09.2,0,.43.19.53l.61.29c.06.03.12.04.17.04.15,0,.29-.09.36-.22l.76-1.53c.13-.02.39-.05.83-.05.41,0,.9.02,1.47.07.24.02.48.03.72.03,3.07,0,5.54-1.74,7.14-5.04,1.21-2.5,1.5-5.04,1.51-5.06.02-.14-.06-.3-.2-.38-.07-.04-.13-.05-.2-.05h0ZM216.06,45.94c.4-.87,1.28-2.42,2.89-3.61-.96.86-1.95,2.03-2.89,3.61h0Z"/>
    </g>
    <g>
      <path class="cls-1" d="M199.84,105.92l-.09-.03-.61-.29c-.14-.07-.2-.23-.13-.37,1.72-3.82,3.79-5.86,5.54-6.96-3.66,1.57-4.86,5.24-4.87,5.28-.03.12-.14.2-.27.2-.17-.02-.28-.14-.28-.28,0-.29.08-7.11,7.05-7.9.18,0,4.19-.25,5.9-1.6l.03-.03.14-.03s.09.01.13.04c.1.06.16.17.14.28,0,.09-1.19,9.98-8.52,9.98-.23,0-.47,0-.71-.03-.63-.05-1.11-.07-1.47-.07-.53,0-.8.04-.92.06l-.79,1.58c-.05.09-.14.16-.25.16h-.02Z"/>
      <path class="cls-4" d="M212.25,94.05s.05,0,.08.02h0c.05.03.09.09.08.14,0,.1-1.14,9.87-8.4,9.87-.23,0-.46,0-.7-.03-.64-.05-1.12-.07-1.49-.07-.62,0-.9.05-1,.08l-.82,1.64c-.03.06-.08.09-.14.09-.02,0-.04,0-.06-.02l-.6-.28c-.07-.04-.11-.13-.07-.2,2.17-4.83,4.9-6.79,6.82-7.59-4.87,1.12-6.37,5.78-6.39,5.83-.02.07-.08.11-.15.11,0,0-.01,0-.02,0-.08,0-.13-.07-.13-.15,0-.29.08-7,6.94-7.78.05,0,4.19-.23,5.97-1.63.03-.02.06-.03.09-.03M212.25,93.8c-.09,0-.17.03-.24.08-1.69,1.33-5.66,1.57-5.83,1.58-7.1.81-7.18,7.73-7.18,8.03,0,.2.15.37.35.4,0,0,0,0,0,0,.07,0,.13-.01.18-.03-.22.42-.44.86-.65,1.33-.09.2,0,.43.19.53l.61.29c.06.03.12.04.17.04.15,0,.29-.09.36-.22l.76-1.53c.13-.02.39-.05.83-.05.41,0,.9.02,1.47.07.24.02.48.03.72.03,3.07,0,5.54-1.74,7.14-5.04,1.21-2.5,1.5-5.04,1.51-5.06.02-.14-.06-.3-.2-.38-.07-.04-.13-.05-.2-.05h0ZM200.06,102.94c.4-.87,1.28-2.42,2.89-3.61-.96.86-1.95,2.03-2.89,3.61h0Z"/>
    </g>
    <g>
      <path class="cls-1" d="M221.84,94.92l-.09-.03-.61-.29c-.14-.07-.2-.23-.13-.37,1.72-3.82,3.79-5.86,5.54-6.96-3.66,1.57-4.86,5.24-4.87,5.28-.03.12-.14.2-.27.2-.17-.02-.28-.14-.28-.28,0-.29.08-7.11,7.05-7.9.18,0,4.19-.25,5.9-1.6l.03-.03.14-.03s.09.01.13.04c.1.06.16.17.14.28,0,.09-1.19,9.98-8.52,9.98-.23,0-.47,0-.71-.03-.63-.05-1.11-.07-1.47-.07-.53,0-.8.04-.92.06l-.79,1.58c-.05.09-.14.16-.25.16h-.02Z"/>
      <path class="cls-4" d="M234.25,83.05s.05,0,.08.02h0c.05.03.09.09.08.14,0,.1-1.14,9.87-8.4,9.87-.23,0-.46,0-.7-.03-.64-.05-1.12-.07-1.49-.07-.62,0-.9.05-1,.08l-.82,1.64c-.03.06-.08.09-.14.09-.02,0-.04,0-.06-.02l-.6-.28c-.07-.04-.11-.13-.07-.2,2.17-4.83,4.9-6.79,6.82-7.59-4.87,1.12-6.37,5.78-6.39,5.83-.02.07-.08.11-.15.11,0,0-.01,0-.02,0-.08,0-.13-.07-.13-.15,0-.29.08-7,6.94-7.78.05,0,4.19-.23,5.97-1.63.03-.02.06-.03.09-.03M234.25,82.8c-.09,0-.17.03-.24.08-1.68,1.33-5.66,1.57-5.83,1.58-7.1.81-7.18,7.73-7.18,8.03,0,.2.15.37.35.4,0,0,0,0,0,0,.07,0,.13-.01.18-.03-.22.42-.44.86-.65,1.33-.09.2,0,.43.19.53l.61.29c.06.03.12.04.17.04.15,0,.29-.09.36-.22l.76-1.53c.13-.02.39-.05.83-.05.41,0,.9.02,1.47.07.24.02.48.03.72.03,3.07,0,5.54-1.74,7.14-5.04,1.21-2.5,1.5-5.04,1.51-5.06.02-.14-.06-.3-.2-.38-.07-.04-.13-.05-.2-.05h0ZM222.06,91.94c.4-.87,1.28-2.42,2.89-3.61-.96.86-1.95,2.03-2.89,3.61h0Z"/>
    </g>
    <g>
      <path class="cls-1" d="M228.84,93.92l-.09-.03-.61-.29c-.14-.07-.2-.23-.13-.37,1.72-3.82,3.79-5.86,5.54-6.96-3.66,1.57-4.86,5.24-4.87,5.28-.03.12-.14.2-.27.2-.17-.02-.28-.14-.28-.28,0-.29.08-7.11,7.05-7.9.18,0,4.19-.25,5.9-1.6l.03-.03.14-.03s.09.01.13.04c.1.06.16.17.14.28,0,.09-1.19,9.98-8.52,9.98-.23,0-.47,0-.71-.03-.63-.05-1.11-.07-1.47-.07-.53,0-.8.04-.92.06l-.79,1.58c-.05.09-.14.16-.25.16h-.02Z"/>
      <path class="cls-4" d="M241.25,82.05s.05,0,.08.02h0c.05.03.09.09.08.14,0,.1-1.14,9.87-8.4,9.87-.23,0-.46,0-.7-.03-.64-.05-1.12-.07-1.49-.07-.62,0-.9.05-1,.08l-.82,1.64c-.03.06-.08.09-.14.09-.02,0-.04,0-.06-.02l-.6-.28c-.07-.04-.11-.13-.07-.2,2.17-4.83,4.9-6.79,6.82-7.59-4.87,1.12-6.37,5.78-6.39,5.83-.02.07-.08.11-.15.11,0,0-.01,0-.02,0-.08,0-.13-.07-.13-.15,0-.29.08-7,6.94-7.78.05,0,4.19-.23,5.97-1.63.03-.02.06-.03.09-.03M241.25,81.8c-.09,0-.17.03-.24.08-1.68,1.33-5.66,1.57-5.83,1.58-7.1.81-7.18,7.73-7.18,8.03,0,.2.15.37.35.4,0,0,0,0,0,0,.07,0,.13-.01.18-.03-.22.42-.44.86-.65,1.33-.09.2,0,.43.19.53l.61.29c.06.03.12.04.17.04.15,0,.29-.09.36-.22l.76-1.53c.13-.02.39-.05.83-.05.41,0,.9.02,1.47.07.24.02.48.03.72.03,3.07,0,5.54-1.74,7.14-5.04,1.21-2.5,1.5-5.04,1.51-5.06.02-.14-.06-.3-.2-.38-.07-.04-.13-.05-.2-.05h0ZM229.06,90.94c.4-.87,1.28-2.42,2.89-3.61-.96.86-1.95,2.03-2.89,3.61h0Z"/>
    </g>
    <g>
      <path class="cls-1" d="M252.84,95.92l-.09-.03-.61-.29c-.14-.07-.2-.23-.13-.37,1.72-3.82,3.79-5.86,5.54-6.96-3.66,1.57-4.86,5.24-4.87,5.28-.03.12-.14.2-.27.2-.17-.02-.28-.14-.28-.28,0-.29.08-7.11,7.05-7.9.18,0,4.19-.25,5.9-1.6l.03-.03.14-.03s.09.01.13.04c.1.06.16.17.14.28,0,.09-1.19,9.98-8.52,9.98-.23,0-.47,0-.71-.03-.63-.05-1.11-.07-1.47-.07-.53,0-.8.04-.92.06l-.79,1.58c-.05.09-.14.16-.25.16h-.02Z"/>
      <path class="cls-4" d="M265.25,84.05s.05,0,.08.02h0c.05.03.09.09.08.14,0,.1-1.14,9.87-8.4,9.87-.23,0-.46,0-.7-.03-.64-.05-1.12-.07-1.49-.07-.62,0-.9.05-1,.08l-.82,1.64c-.03.06-.08.09-.14.09-.02,0-.04,0-.06-.02l-.6-.28c-.07-.04-.11-.13-.07-.2,2.17-4.83,4.9-6.79,6.82-7.59-4.87,1.12-6.37,5.78-6.39,5.83-.02.07-.08.11-.15.11,0,0-.01,0-.02,0-.08,0-.13-.07-.13-.15,0-.29.08-7,6.94-7.78.05,0,4.19-.23,5.97-1.63.03-.02.06-.03.09-.03M265.25,83.8c-.09,0-.17.03-.24.08-1.68,1.33-5.66,1.57-5.83,1.58-7.1.81-7.18,7.73-7.18,8.03,0,.2.15.37.35.4,0,0,0,0,0,0,.07,0,.13-.01.18-.03-.22.42-.44.86-.65,1.33-.09.2,0,.43.19.53l.61.29c.06.03.12.04.17.04.15,0,.29-.09.36-.22l.76-1.53c.13-.02.39-.05.83-.05.41,0,.9.02,1.47.07.24.02.48.03.72.03,3.07,0,5.54-1.74,7.14-5.04,1.21-2.5,1.5-5.04,1.51-5.06.02-.14-.06-.3-.2-.38-.07-.04-.13-.05-.2-.05h0ZM253.06,92.94c.4-.87,1.28-2.42,2.89-3.61-.96.86-1.95,2.03-2.89,3.61h0Z"/>
    </g>
    <g>
      <path class="cls-1" d="M241.84,112.92l-.09-.03-.61-.29c-.14-.07-.2-.23-.13-.37,1.72-3.82,3.79-5.86,5.54-6.96-3.66,1.57-4.86,5.24-4.87,5.28-.03.12-.14.2-.27.2-.17-.02-.28-.14-.28-.28,0-.29.08-7.11,7.05-7.9.18,0,4.19-.25,5.9-1.6l.03-.03.14-.03s.09.01.13.04c.1.06.16.17.14.28,0,.09-1.19,9.98-8.52,9.98-.23,0-.47,0-.71-.03-.63-.05-1.11-.07-1.47-.07-.53,0-.8.04-.92.06l-.79,1.58c-.05.09-.14.16-.25.16h-.02Z"/>
      <path class="cls-4" d="M254.25,101.05s.05,0,.08.02h0c.05.03.09.09.08.14,0,.1-1.14,9.87-8.4,9.87-.23,0-.46,0-.7-.03-.64-.05-1.12-.07-1.49-.07-.62,0-.9.05-1,.08l-.82,1.64c-.03.06-.08.09-.14.09-.02,0-.04,0-.06-.02l-.6-.28c-.07-.04-.11-.13-.07-.2,2.17-4.83,4.9-6.79,6.82-7.59-4.87,1.12-6.37,5.78-6.39,5.83-.02.07-.08.11-.15.11,0,0-.01,0-.02,0-.08,0-.13-.07-.13-.15,0-.29.08-7,6.94-7.78.05,0,4.19-.23,5.97-1.63.03-.02.06-.03.09-.03M254.25,100.8c-.09,0-.17.03-.24.08-1.69,1.33-5.66,1.57-5.83,1.58-7.1.81-7.18,7.73-7.18,8.03,0,.2.15.37.35.4,0,0,0,0,0,0,.07,0,.13-.01.18-.03-.22.42-.44.86-.65,1.33-.09.2,0,.43.19.53l.61.29c.06.03.12.04.17.04.15,0,.29-.09.36-.22l.76-1.53c.13-.02.39-.05.83-.05.41,0,.9.02,1.47.07.24.02.48.03.72.03,3.07,0,5.54-1.74,7.14-5.04,1.21-2.5,1.5-5.04,1.51-5.06.02-.14-.06-.3-.2-.38-.07-.04-.13-.05-.2-.05h0ZM242.06,109.94c.4-.87,1.28-2.42,2.89-3.61-.96.86-1.95,2.03-2.89,3.61h0Z"/>
    </g>
    <g>
      <path class="cls-1" d="M258.84,124.92l-.09-.03-.61-.29c-.14-.07-.2-.23-.13-.37,1.72-3.82,3.79-5.86,5.54-6.96-3.66,1.57-4.86,5.24-4.87,5.28-.03.12-.14.2-.27.2-.17-.02-.28-.14-.28-.28,0-.29.08-7.11,7.05-7.9.18,0,4.19-.25,5.9-1.6l.03-.03.14-.03s.09.01.13.04c.1.06.16.17.14.28,0,.09-1.19,9.98-8.52,9.98-.23,0-.47,0-.71-.03-.63-.05-1.11-.07-1.47-.07-.53,0-.8.04-.92.06l-.79,1.58c-.05.09-.14.16-.25.16h-.02Z"/>
      <path class="cls-4" d="M271.25,113.05s.05,0,.08.02h0c.05.03.09.09.08.14,0,.1-1.14,9.87-8.4,9.87-.23,0-.46,0-.7-.03-.64-.05-1.12-.07-1.49-.07-.62,0-.9.05-1,.08l-.82,1.64c-.03.06-.08.09-.14.09-.02,0-.04,0-.06-.02l-.6-.28c-.07-.04-.11-.13-.07-.2,2.17-4.83,4.9-6.79,6.82-7.59-4.87,1.12-6.37,5.78-6.39,5.83-.02.07-.08.11-.15.11,0,0-.01,0-.02,0-.08,0-.13-.07-.13-.15,0-.29.08-7,6.94-7.78.05,0,4.19-.23,5.97-1.63.03-.02.06-.03.09-.03M271.25,112.8c-.09,0-.17.03-.24.08-1.69,1.33-5.66,1.57-5.83,1.58-7.1.81-7.18,7.73-7.18,8.03,0,.2.15.37.35.4,0,0,0,0,0,0,.07,0,.13-.01.18-.03-.22.42-.44.86-.65,1.33-.09.2,0,.43.19.53l.61.29c.06.03.12.04.17.04.15,0,.29-.09.36-.22l.76-1.53c.13-.02.39-.05.83-.05.41,0,.9.02,1.47.07.24.02.48.03.72.03,3.07,0,5.54-1.74,7.14-5.04,1.21-2.5,1.5-5.04,1.51-5.06.02-.14-.06-.3-.2-.38-.07-.04-.13-.05-.2-.05h0ZM259.06,121.94c.4-.87,1.28-2.42,2.89-3.61-.96.86-1.95,2.03-2.89,3.61h0Z"/>
    </g>
    <g>
      <path class="cls-1" d="M221.84,139.92l-.09-.03-.61-.29c-.14-.07-.2-.23-.13-.37,1.72-3.82,3.79-5.86,5.54-6.96-3.66,1.57-4.86,5.24-4.87,5.28-.03.12-.14.2-.27.2-.17-.02-.28-.14-.28-.28,0-.29.08-7.11,7.05-7.9.18,0,4.19-.25,5.9-1.6l.03-.03.14-.03s.09.01.13.04c.1.06.16.17.14.28,0,.09-1.19,9.98-8.52,9.98-.23,0-.47,0-.71-.03-.63-.05-1.11-.07-1.47-.07-.53,0-.8.04-.92.06l-.79,1.58c-.05.09-.14.16-.25.16h-.02Z"/>
      <path class="cls-4" d="M234.25,128.05s.05,0,.08.02h0c.05.03.09.09.08.14,0,.1-1.14,9.87-8.4,9.87-.23,0-.46,0-.7-.03-.64-.05-1.12-.07-1.49-.07-.62,0-.9.05-1,.08l-.82,1.64c-.03.06-.08.09-.14.09-.02,0-.04,0-.06-.02l-.6-.28c-.07-.04-.11-.13-.07-.2,2.17-4.83,4.9-6.79,6.82-7.59-4.87,1.12-6.37,5.78-6.39,5.83-.02.07-.08.11-.15.11,0,0-.01,0-.02,0-.08,0-.13-.07-.13-.15,0-.29.08-7,6.94-7.78.05,0,4.19-.23,5.97-1.63.03-.02.06-.03.09-.03M234.25,127.8c-.09,0-.17.03-.24.08-1.69,1.33-5.66,1.57-5.83,1.58-7.1.81-7.18,7.73-7.18,8.03,0,.2.15.37.35.4,0,0,0,0,0,0,.07,0,.13-.01.18-.03-.22.42-.44.86-.65,1.33-.09.2,0,.43.19.53l.61.29c.06.03.12.04.17.04.15,0,.29-.09.36-.22l.76-1.53c.13-.02.39-.05.83-.05.41,0,.9.02,1.47.07.24.02.48.03.72.03,3.07,0,5.54-1.74,7.14-5.04,1.21-2.5,1.5-5.04,1.51-5.06.02-.14-.06-.3-.2-.38-.07-.04-.13-.05-.2-.05h0ZM222.06,136.94c.4-.87,1.28-2.42,2.89-3.61-.96.86-1.95,2.03-2.89,3.61h0Z"/>
    </g>
    <g>
      <path class="cls-1" d="M203.84,143.92l-.09-.03-.61-.29c-.14-.07-.2-.23-.13-.37,1.72-3.82,3.79-5.86,5.54-6.96-3.66,1.57-4.86,5.24-4.87,5.28-.03.12-.14.2-.27.2-.17-.02-.28-.14-.28-.28,0-.29.08-7.11,7.05-7.9.18,0,4.19-.25,5.9-1.6l.03-.03.14-.03s.09.01.13.04c.1.06.16.17.14.28,0,.09-1.19,9.98-8.52,9.98-.23,0-.47,0-.71-.03-.63-.05-1.11-.07-1.47-.07-.53,0-.8.04-.92.06l-.79,1.58c-.05.09-.14.16-.25.16h-.02Z"/>
      <path class="cls-4" d="M216.25,132.05s.05,0,.08.02h0c.05.03.09.09.08.14,0,.1-1.14,9.87-8.4,9.87-.23,0-.46,0-.7-.03-.64-.05-1.12-.07-1.49-.07-.62,0-.9.05-1,.08l-.82,1.64c-.03.06-.08.09-.14.09-.02,0-.04,0-.06-.02l-.6-.28c-.07-.04-.11-.13-.07-.2,2.17-4.83,4.9-6.79,6.82-7.59-4.87,1.12-6.37,5.78-6.39,5.83-.02.07-.08.11-.15.11,0,0-.01,0-.02,0-.08,0-.13-.07-.13-.15,0-.29.08-7,6.94-7.78.05,0,4.19-.23,5.97-1.63.03-.02.06-.03.09-.03M216.25,131.8c-.09,0-.17.03-.24.08-1.69,1.33-5.66,1.57-5.83,1.58-7.1.81-7.18,7.73-7.18,8.03,0,.2.15.37.35.4,0,0,0,0,0,0,.07,0,.13-.01.18-.03-.22.42-.44.86-.65,1.33-.09.2,0,.43.19.53l.61.29c.06.03.12.04.17.04.15,0,.29-.09.36-.22l.76-1.53c.13-.02.39-.05.83-.05.41,0,.9.02,1.47.07.24.02.48.03.72.03,3.07,0,5.54-1.74,7.14-5.04,1.21-2.5,1.5-5.04,1.51-5.06.02-.14-.06-.3-.2-.38-.07-.04-.13-.05-.2-.05h0ZM204.06,140.94c.4-.87,1.28-2.42,2.89-3.61-.96.86-1.95,2.03-2.89,3.61h0Z"/>
    </g>
    <g>
      <path class="cls-2" d="M189.84,154.92l-.09-.03-.61-.29c-.14-.07-.2-.23-.13-.37,1.72-3.82,3.79-5.86,5.54-6.96-3.66,1.57-4.86,5.24-4.87,5.28-.03.12-.14.2-.27.2-.17-.02-.28-.14-.28-.28,0-.29.08-7.11,7.05-7.9.18,0,4.19-.25,5.9-1.6l.03-.03.14-.03s.09.01.13.04c.1.06.16.17.14.28,0,.09-1.19,9.98-8.52,9.98-.23,0-.47,0-.71-.03-.63-.05-1.11-.07-1.47-.07-.53,0-.8.04-.92.06l-.79,1.58c-.05.09-.14.16-.25.16h-.02Z"/>
      <path class="cls-4" d="M202.25,143.05s.05,0,.08.02h0c.05.03.09.09.08.14,0,.1-1.14,9.87-8.4,9.87-.23,0-.46,0-.7-.03-.64-.05-1.12-.07-1.49-.07-.62,0-.9.05-1,.08l-.82,1.64c-.03.06-.08.09-.14.09-.02,0-.04,0-.06-.02l-.6-.28c-.07-.04-.11-.13-.07-.2,2.17-4.83,4.9-6.79,6.82-7.59-4.87,1.12-6.37,5.78-6.39,5.83-.02.07-.08.11-.15.11,0,0-.01,0-.02,0-.08,0-.13-.07-.13-.15,0-.29.08-7,6.94-7.78.05,0,4.19-.23,5.97-1.63.03-.02.06-.03.09-.03M202.25,142.8c-.09,0-.17.03-.24.08-1.69,1.33-5.66,1.57-5.83,1.58-7.1.81-7.18,7.73-7.18,8.03,0,.2.15.37.35.4,0,0,0,0,0,0,.07,0,.13-.01.18-.03-.22.42-.44.86-.65,1.33-.09.2,0,.43.19.53l.61.29c.06.03.12.04.17.04.15,0,.29-.09.36-.22l.76-1.53c.13-.02.39-.05.83-.05.41,0,.9.02,1.47.07.24.02.48.03.72.03,3.07,0,5.54-1.74,7.14-5.04,1.21-2.5,1.5-5.04,1.51-5.06.02-.14-.06-.3-.2-.38-.07-.04-.13-.05-.2-.05h0ZM190.06,151.94c.4-.87,1.28-2.42,2.89-3.61-.96.86-1.95,2.03-2.89,3.61h0Z"/>
    </g>
    <g>
      <path class="cls-2" d="M223.84,164.92l-.09-.03-.61-.29c-.14-.07-.2-.23-.13-.37,1.72-3.82,3.79-5.86,5.54-6.96-3.66,1.57-4.86,5.24-4.87,5.28-.03.12-.14.2-.27.2-.17-.02-.28-.14-.28-.28,0-.29.08-7.11,7.05-7.9.18,0,4.19-.25,5.9-1.6l.03-.03.14-.03s.09.01.13.04c.1.06.16.17.14.28,0,.09-1.19,9.98-8.52,9.98-.23,0-.47,0-.71-.03-.63-.05-1.11-.07-1.47-.07-.53,0-.8.04-.92.06l-.79,1.58c-.05.09-.14.16-.25.16h-.02Z"/>
      <path class="cls-4" d="M236.25,153.05s.05,0,.08.02h0c.05.03.09.09.08.14,0,.1-1.14,9.87-8.4,9.87-.23,0-.46,0-.7-.03-.64-.05-1.12-.07-1.49-.07-.62,0-.9.05-1,.08l-.82,1.64c-.03.06-.08.09-.14.09-.02,0-.04,0-.06-.02l-.6-.28c-.07-.04-.11-.13-.07-.2,2.17-4.83,4.9-6.79,6.82-7.59-4.87,1.12-6.37,5.78-6.39,5.83-.02.07-.08.11-.15.11,0,0-.01,0-.02,0-.08,0-.13-.07-.13-.15,0-.29.08-7,6.94-7.78.05,0,4.19-.23,5.97-1.63.03-.02.06-.03.09-.03M236.25,152.8c-.09,0-.17.03-.24.08-1.68,1.33-5.66,1.57-5.83,1.58-7.1.81-7.18,7.73-7.18,8.03,0,.2.15.37.35.4,0,0,0,0,0,0,.07,0,.13-.01.18-.03-.22.42-.44.86-.65,1.33-.09.2,0,.43.19.53l.61.29c.06.03.12.04.17.04.15,0,.29-.09.36-.22l.76-1.53c.13-.02.39-.05.83-.05.41,0,.9.02,1.47.07.24.02.48.03.72.03,3.07,0,5.54-1.74,7.14-5.04,1.21-2.5,1.5-5.04,1.51-5.06.02-.14-.06-.3-.2-.38-.07-.04-.13-.05-.2-.05h0ZM224.06,161.94c.4-.87,1.28-2.42,2.89-3.61-.96.86-1.95,2.03-2.89,3.61h0Z"/>
    </g>
    <path class="cls-7" d="M273.33,67.07c-.06-.03-.12-.02-.17.01-1.78,1.4-5.92,1.63-5.97,1.63-6.86.78-6.94,7.49-6.94,7.78,0,.08.06.14.13.15.07,0,.15-.03.17-.11.02-.06,1.52-4.71,6.39-5.83-1.92.8-4.65,2.77-6.82,7.59-.03.08,0,.17.07.2l.6.28s.04.02.06.02c.06,0,.11-.03.14-.09l.82-1.64c.16-.04.77-.15,2.49,0,.24.02.47.03.7.03,7.26,0,8.39-9.77,8.4-9.87,0-.06-.02-.11-.08-.14h0Z"/>
    <g id="_17300_Pollen" data-name="17300_Pollen">
      <path class="cls-1" d="M203.84,33.92l-.09-.03-.61-.29c-.14-.07-.2-.23-.13-.37,1.72-3.82,3.79-5.86,5.54-6.96-3.66,1.57-4.86,5.24-4.87,5.28-.03.12-.14.2-.27.2-.17-.02-.28-.14-.28-.28,0-.29.08-7.11,7.05-7.9.18,0,4.19-.25,5.9-1.6l.03-.03.14-.03s.09.01.13.04c.1.06.16.17.14.28,0,.09-1.19,9.98-8.52,9.98-.23,0-.47,0-.71-.03-.63-.05-1.11-.07-1.47-.07-.53,0-.8.04-.92.06l-.79,1.58c-.05.09-.14.16-.25.16h-.02Z"/>
      <path class="cls-4" d="M216.25,22.05s.05,0,.08.02h0c.05.03.09.09.08.14,0,.1-1.14,9.87-8.4,9.87-.23,0-.46,0-.7-.03-.64-.05-1.12-.07-1.49-.07-.62,0-.9.05-1,.08l-.82,1.64c-.03.06-.08.09-.14.09-.02,0-.04,0-.06-.02l-.6-.28c-.07-.04-.11-.13-.07-.2,2.17-4.83,4.9-6.79,6.82-7.59-4.87,1.12-6.37,5.78-6.39,5.83-.02.07-.08.11-.15.11,0,0-.01,0-.02,0-.08,0-.13-.07-.13-.15,0-.29.08-7,6.94-7.78.05,0,4.19-.23,5.97-1.63.03-.02.06-.03.09-.03M216.25,21.8c-.09,0-.17.03-.24.08-1.68,1.33-5.66,1.57-5.83,1.58-7.1.81-7.18,7.73-7.18,8.03,0,.2.15.37.35.4,0,0,0,0,0,0,.07,0,.13-.01.18-.03-.22.42-.44.86-.65,1.33-.09.2,0,.43.19.53l.61.29c.06.03.12.04.17.04.15,0,.29-.09.36-.22l.76-1.53c.13-.02.39-.05.83-.05.41,0,.9.02,1.47.07.24.02.48.03.72.03,3.07,0,5.54-1.74,7.14-5.04,1.21-2.5,1.5-5.04,1.51-5.06.02-.14-.06-.3-.2-.38-.07-.04-.13-.05-.2-.05h0ZM204.06,30.94c.4-.87,1.28-2.42,2.89-3.61-.96.86-1.95,2.03-2.89,3.61h0Z"/>
    </g>
  </g>
  <g id="Calque_4" data-name="Calque 4">
    <rect class="cls-6" y="0" width="436.54" height="216.57"/>
  </g>
</svg>